<?xml version="1.0" encoding="UTF-8" standalone="no"?>
<!-- Created with Inkscape (http://www.inkscape.org/) -->

<svg
   xmlns:dc="http://purl.org/dc/elements/1.1/"
   xmlns:cc="http://creativecommons.org/ns#"
   xmlns:rdf="http://www.w3.org/1999/02/22-rdf-syntax-ns#"
   xmlns:svg="http://www.w3.org/2000/svg"
   xmlns="http://www.w3.org/2000/svg"
   xmlns:xlink="http://www.w3.org/1999/xlink"
   xmlns:sodipodi="http://sodipodi.sourceforge.net/DTD/sodipodi-0.dtd"
   xmlns:inkscape="http://www.inkscape.org/namespaces/inkscape"
   width="16.700788in"
   height="17.893702in"
   viewBox="0 0 1503.0709 1610.4331"
   id="svg4203"
   version="1.1"
   inkscape:version="0.91 r13725"
   sodipodi:docname="goban.svg"
   inkscape:export-filename="/home/travis/Projects/goban/goban.png"
   inkscape:export-xdpi="600"
   inkscape:export-ydpi="600">
  <defs
     id="defs4205" />
  <sodipodi:namedview
     id="base"
     pagecolor="#ffffff"
     bordercolor="#666666"
     borderopacity="1.0"
     inkscape:pageopacity="0.0"
     inkscape:pageshadow="2"
     inkscape:zoom="0.35355339"
     inkscape:cx="766.21776"
     inkscape:cy="953.67186"
     inkscape:document-units="px"
     inkscape:current-layer="layer1"
     showgrid="false"
     inkscape:window-width="1920"
     inkscape:window-height="1018"
     inkscape:window-x="0"
     inkscape:window-y="0"
     inkscape:window-maximized="1"
     units="in" />
  <metadata
     id="metadata4208">
    <rdf:RDF>
      <cc:Work
         rdf:about="">
        <dc:format>image/svg+xml</dc:format>
        <dc:type
           rdf:resource="http://purl.org/dc/dcmitype/StillImage" />
        <dc:title />
      </cc:Work>
    </rdf:RDF>
  </metadata>
  <g
     inkscape:label="Layer 1"
     inkscape:groupmode="layer"
     id="layer1"
     transform="translate(0,558.07087)">
    <path
       style="fill:none;fill-rule:evenodd;stroke:#000000;stroke-width:2.83374381;stroke-linecap:butt;stroke-linejoin:miter;stroke-miterlimit:4;stroke-dasharray:none;stroke-opacity:1"
       d="m 50.853489,-506.87008 1402.256811,0"
       id="path4751"
       inkscape:connector-curvature="0" />
    <use
       x="0"
       y="0"
       xlink:href="#path4751"
       id="use4753"
       transform="translate(1.9959753e-5,83.779595)"
       width="100%"
       height="100%" />
    <use
       height="100%"
       width="100%"
       transform="translate(1.9959753e-5,167.55909)"
       id="use4755"
       xlink:href="#path4751"
       y="0"
       x="0" />
    <use
       x="0"
       y="0"
       xlink:href="#path4751"
       id="use4757"
       transform="translate(1.9959753e-5,251.33864)"
       width="100%"
       height="100%" />
    <use
       height="100%"
       width="100%"
       transform="translate(1.9959753e-5,335.11814)"
       id="use4759"
       xlink:href="#path4751"
       y="0"
       x="0" />
    <use
       x="0"
       y="0"
       xlink:href="#path4751"
       id="use4761"
       transform="translate(1.9959753e-5,418.89771)"
       width="100%"
       height="100%" />
    <use
       height="100%"
       width="100%"
       transform="translate(1.9959753e-5,502.67731)"
       id="use4763"
       xlink:href="#path4751"
       y="0"
       x="0" />
    <use
       x="0"
       y="0"
       xlink:href="#path4751"
       id="use4765"
       transform="translate(1.9959753e-5,586.45675)"
       width="100%"
       height="100%" />
    <use
       height="100%"
       width="100%"
       transform="translate(1.9959753e-5,670.23627)"
       id="use4767"
       xlink:href="#path4751"
       y="0"
       x="0" />
    <use
       x="0"
       y="0"
       xlink:href="#path4751"
       id="use4769"
       transform="translate(1.9959753e-5,754.01574)"
       width="100%"
       height="100%" />
    <use
       height="100%"
       width="100%"
       transform="translate(1.9959753e-5,837.79531)"
       id="use4771"
       xlink:href="#path4751"
       y="0"
       x="0" />
    <use
       x="0"
       y="0"
       xlink:href="#path4751"
       id="use4773"
       transform="translate(1.9959753e-5,921.57485)"
       width="100%"
       height="100%" />
    <use
       height="100%"
       width="100%"
       transform="translate(1.9959753e-5,1005.3544)"
       id="use4775"
       xlink:href="#path4751"
       y="0"
       x="0" />
    <use
       x="0"
       y="0"
       xlink:href="#path4751"
       id="use4777"
       transform="translate(1.9959753e-5,1089.1339)"
       width="100%"
       height="100%" />
    <use
       height="100%"
       width="100%"
       transform="translate(1.9959753e-5,1172.9134)"
       id="use4779"
       xlink:href="#path4751"
       y="0"
       x="0" />
    <use
       x="0"
       y="0"
       xlink:href="#path4751"
       id="use4781"
       transform="translate(1.9959753e-5,1256.6929)"
       width="100%"
       height="100%" />
    <use
       height="100%"
       width="100%"
       transform="translate(1.9959753e-5,1340.4724)"
       id="use4783"
       xlink:href="#path4751"
       y="0"
       x="0" />
    <use
       x="0"
       y="0"
       xlink:href="#path4751"
       id="use4785"
       transform="translate(1.9959753e-5,1424.252)"
       width="100%"
       height="100%" />
    <use
       height="100%"
       width="100%"
       transform="translate(1.9959753e-5,1508.0315)"
       id="use4787"
       xlink:href="#path4751"
       y="0"
       x="0" />
    <path
       style="fill:none;fill-rule:evenodd;stroke:#000000;stroke-width:2.83432174;stroke-linecap:butt;stroke-linejoin:miter;stroke-miterlimit:4;stroke-dasharray:none;stroke-opacity:1"
       d="m 51.667586,1002.9331 0,-1511.22169"
       id="path4751-6"
       inkscape:connector-curvature="0" />
    <use
       x="0"
       y="0"
       xlink:href="#path4751-6"
       id="use4753-7"
       transform="matrix(1,0,0,1.0000052,77.763159,-0.00523926)"
       width="100%"
       height="100%" />
    <use
       height="100%"
       width="100%"
       transform="matrix(1,0,0,1.0000052,155.52623,-0.00523926)"
       id="use4755-5"
       xlink:href="#path4751-6"
       y="0"
       x="0" />
    <use
       x="0"
       y="0"
       xlink:href="#path4751-6"
       id="use4757-3"
       transform="matrix(1,0,0,1.0000052,233.28934,-0.00523926)"
       width="100%"
       height="100%" />
    <use
       height="100%"
       width="100%"
       transform="matrix(1,0,0,1.0000052,311.05241,-0.00523926)"
       id="use4759-5"
       xlink:href="#path4751-6"
       y="0"
       x="0" />
    <use
       x="0"
       y="0"
       xlink:href="#path4751-6"
       id="use4761-6"
       transform="matrix(1,0,0,1.0000052,388.81555,-0.00523926)"
       width="100%"
       height="100%" />
    <use
       height="100%"
       width="100%"
       transform="matrix(1,0,0,1.0000052,466.57872,-0.00523926)"
       id="use4763-2"
       xlink:href="#path4751-6"
       y="0"
       x="0" />
    <use
       x="0"
       y="0"
       xlink:href="#path4751-6"
       id="use4765-9"
       transform="matrix(1,0,0,1.0000052,544.34173,-0.00523926)"
       width="100%"
       height="100%" />
    <use
       height="100%"
       width="100%"
       transform="matrix(1,0,0,1.0000052,622.10482,-0.00523926)"
       id="use4767-1"
       xlink:href="#path4751-6"
       y="0"
       x="0" />
    <use
       x="0"
       y="0"
       xlink:href="#path4751-6"
       id="use4769-2"
       transform="matrix(1,0,0,1.0000052,699.86786,-0.00523926)"
       width="100%"
       height="100%" />
    <use
       height="100%"
       width="100%"
       transform="matrix(1,0,0,1.0000052,777.631,-0.00523926)"
       id="use4771-7"
       xlink:href="#path4751-6"
       y="0"
       x="0" />
    <use
       x="0"
       y="0"
       xlink:href="#path4751-6"
       id="use4773-0"
       transform="matrix(1,0,0,1.0000052,855.39411,-0.00523926)"
       width="100%"
       height="100%" />
    <use
       height="100%"
       width="100%"
       transform="matrix(1,0,0,1.0000052,933.15723,-0.00523926)"
       id="use4775-9"
       xlink:href="#path4751-6"
       y="0"
       x="0" />
    <use
       x="0"
       y="0"
       xlink:href="#path4751-6"
       id="use4777-3"
       transform="matrix(1,0,0,1.0000052,1010.9203,-0.00523926)"
       width="100%"
       height="100%" />
    <use
       height="100%"
       width="100%"
       transform="matrix(1,0,0,1.0000052,1088.6834,-0.00523926)"
       id="use4779-6"
       xlink:href="#path4751-6"
       y="0"
       x="0" />
    <use
       x="0"
       y="0"
       xlink:href="#path4751-6"
       id="use4781-0"
       transform="matrix(1,0,0,1.0000052,1166.4464,-0.00523926)"
       width="100%"
       height="100%" />
    <use
       height="100%"
       width="100%"
       transform="matrix(1,0,0,1.0000052,1244.2095,-0.00523926)"
       id="use4783-6"
       xlink:href="#path4751-6"
       y="0"
       x="0" />
    <use
       x="0"
       y="0"
       xlink:href="#path4751-6"
       id="use4785-2"
       transform="matrix(1,0,0,1.0000052,1321.9727,-0.00523926)"
       width="100%"
       height="100%" />
    <use
       height="100%"
       width="100%"
       transform="matrix(1,0,0,1.0000052,1399.7357,-0.00523926)"
       id="use4787-6"
       xlink:href="#path4751-6"
       y="0"
       x="0" />
    <g
       id="g4286">
      <g
         transform="matrix(0.98846515,0,0,1.4845705,1709.1311,178.84558)"
         id="g4191">
        <ellipse
           ry="4.7735114"
           rx="7.169311"
           style="color:#000000;clip-rule:nonzero;display:inline;overflow:visible;visibility:visible;opacity:1;isolation:auto;mix-blend-mode:normal;color-interpolation:sRGB;color-interpolation-filters:linearRGB;solid-color:#000000;solid-opacity:1;fill:#000000;fill-opacity:1;fill-rule:nonzero;stroke:none;stroke-width:2.92501211;stroke-linecap:round;stroke-linejoin:round;stroke-miterlimit:4;stroke-dasharray:none;stroke-dashoffset:0;stroke-opacity:1;color-rendering:auto;image-rendering:auto;shape-rendering:auto;text-rendering:auto;enable-background:accumulate"
           id="path4941"
           cx="-1440.7935"
           cy="-292.59439" />
        <use
           height="100%"
           width="100%"
           transform="translate(0,338.60103)"
           id="use4983"
           xlink:href="#path4941"
           y="0"
           x="0" />
        <use
           x="0"
           y="0"
           xlink:href="#path4941"
           id="use4989"
           transform="translate(0,677.2021)"
           width="100%"
           height="100%" />
      </g>
      <g
         id="g4196"
         transform="matrix(0.98846515,0,0,1.4845705,1708.5061,178.84558)">
        <use
           x="0"
           y="0"
           xlink:href="#path4941"
           id="use4979"
           transform="translate(472.65548,-1.2697413e-5)"
           width="100%"
           height="100%" />
        <use
           x="0"
           y="0"
           xlink:href="#path4941"
           id="use4985"
           transform="translate(472.65548,338.60102)"
           width="100%"
           height="100%" />
        <use
           height="100%"
           width="100%"
           transform="translate(472.65548,677.20209)"
           id="use4991"
           xlink:href="#path4941"
           y="0"
           x="0" />
      </g>
      <g
         transform="matrix(0.98846515,0,0,1.4845705,1709.1311,178.84558)"
         id="g4201">
        <use
           height="100%"
           width="100%"
           transform="translate(944.04644,-1.2697413e-5)"
           id="use4981"
           xlink:href="#path4941"
           y="0"
           x="0" />
        <use
           height="100%"
           width="100%"
           transform="translate(944.04644,338.60102)"
           id="use4987"
           xlink:href="#path4941"
           y="0"
           x="0" />
        <use
           x="0"
           y="0"
           xlink:href="#path4941"
           id="use4993"
           transform="translate(944.04644,677.20209)"
           width="100%"
           height="100%" />
      </g>
    </g>
  </g>
</svg>
